<svg width="300" height="300" viewBox="0 0 300 300" fill="none" xmlns="http://www.w3.org/2000/svg">
<rect width="300" height="300" rx="65" fill="url(#paint0_linear_206_9)"/>
<g clip-path="url(#clip0_206_9)">
<mask id="mask0_206_9" style="mask-type:luminance" maskUnits="userSpaceOnUse" x="64" y="64" width="172" height="172">
<path d="M150.001 235.2C197.055 235.2 235.201 197.055 235.201 150C235.201 102.945 197.055 64.8 150.001 64.8C102.946 64.8 64.8008 102.945 64.8008 150C64.8008 197.055 102.946 235.2 150.001 235.2Z" fill="white"/>
</mask>
<g mask="url(#mask0_206_9)">
<path d="M186.477 112.725H70.1258C67.197 112.725 64.8008 110.329 64.8008 107.4V70.125C64.8008 67.1963 67.197 64.8 70.1258 64.8H221.888C224.817 64.8 227.213 67.1963 227.213 70.125V71.9888C226.947 94.3538 208.842 112.725 186.477 112.725Z" fill="#F0BF1A"/>
</g>
<mask id="mask1_206_9" style="mask-type:luminance" maskUnits="userSpaceOnUse" x="64" y="64" width="172" height="172">
<path d="M150.001 235.2C197.055 235.2 235.201 197.055 235.201 150C235.201 102.945 197.055 64.8 150.001 64.8C102.946 64.8 64.8008 102.945 64.8008 150C64.8008 197.055 102.946 235.2 150.001 235.2Z" fill="white"/>
</mask>
<g mask="url(#mask1_206_9)">
<path d="M227.48 235.2H65.334V187.275H187.01C209.375 187.275 227.48 205.38 227.48 227.745V235.2Z" fill="#3EBEB0"/>
</g>
<mask id="mask2_206_9" style="mask-type:luminance" maskUnits="userSpaceOnUse" x="64" y="64" width="172" height="172">
<path d="M150.001 235.2C197.055 235.2 235.201 197.055 235.201 150C235.201 102.945 197.055 64.8 150.001 64.8C102.946 64.8 64.8008 102.945 64.8008 150C64.8008 197.055 102.946 235.2 150.001 235.2Z" fill="white"/>
</mask>
<g mask="url(#mask2_206_9)">
<path d="M176.893 173.963H56.2812V126.038H176.893C190.205 126.038 200.855 136.688 200.855 150C200.855 163.313 189.939 173.963 176.893 173.963Z" fill="#07A5DE"/>
</g>
<mask id="mask3_206_9" style="mask-type:luminance" maskUnits="userSpaceOnUse" x="64" y="64" width="172" height="172">
<path d="M150.001 235.2C197.055 235.2 235.201 197.055 235.201 150C235.201 102.945 197.055 64.8 150.001 64.8C102.946 64.8 64.8008 102.945 64.8008 150C64.8008 197.055 102.946 235.2 150.001 235.2Z" fill="white"/>
</mask>
<g mask="url(#mask3_206_9)">
<path d="M139.351 126.038H60.541V173.963H139.351C141.215 166.774 142.28 158.786 142.28 150C142.28 141.214 141.215 133.226 139.351 126.038Z" fill="#231F20"/>
</g>
<path d="M107.134 76.2488C92.7566 84.7688 80.7753 97.5488 73.3203 112.725H136.155C129.765 98.0813 119.648 85.8338 107.134 76.2488Z" fill="#D7A229"/>
<path d="M109.797 225.082C122.044 215.231 131.895 202.185 138.019 187.275H73.3203C81.3078 203.25 94.0878 216.562 109.797 225.082Z" fill="#019B8F"/>
</g>
<defs>
<linearGradient id="paint0_linear_206_9" x1="150" y1="0" x2="150" y2="300" gradientUnits="userSpaceOnUse">
<stop stop-color="white"/>
<stop offset="1" stop-color="#FAFAFA"/>
</linearGradient>
<clipPath id="clip0_206_9">
<rect width="213" height="213" fill="white" transform="translate(43.5 43.5)"/>
</clipPath>
</defs>
</svg>
