<svg width="300" height="300" viewBox="0 0 300 300" fill="none" xmlns="http://www.w3.org/2000/svg">
<rect width="300" height="300" rx="65" fill="url(#paint0_linear_201_55)"/>
<path d="M117.576 248.121C126.333 251.646 135.833 253.737 145.808 254.085C159.308 254.557 172.145 251.766 183.622 246.464C169.86 241.057 157.396 233.15 146.758 223.319C139.863 234.359 129.664 243.079 117.576 248.121Z" fill="#FF9100"/>
<path d="M146.757 223.322C122.475 200.864 107.744 168.36 108.989 132.708C109.029 131.551 109.09 130.393 109.162 129.237C104.727 128.087 100.179 127.425 95.6005 127.263C89.093 127.033 82.5892 127.815 76.3216 129.58C69.8391 140.935 65.9278 153.963 65.4404 167.918C64.1827 203.931 85.977 235.399 117.574 248.125C129.663 243.082 139.861 234.373 146.757 223.322Z" fill="#FFC400"/>
<path d="M146.757 223.321C152.403 214.286 155.825 203.694 156.224 192.282C157.272 162.264 137.092 136.441 109.162 129.236C109.091 130.392 109.03 131.549 108.989 132.707C107.744 168.359 122.475 200.863 146.757 223.321Z" fill="#FF9100"/>
<path d="M153.1 44.8564C137.193 57.6002 124.632 74.4037 117.032 93.761C112.681 104.849 109.947 116.758 109.148 129.243C137.078 136.449 157.259 162.271 156.21 192.289C155.812 203.701 152.379 214.283 146.743 223.328C157.38 233.169 169.844 241.067 183.607 246.473C211.23 233.704 230.829 206.228 231.964 173.729C232.7 152.673 224.61 133.906 213.178 118.066C201.106 101.313 153.1 44.8564 153.1 44.8564Z" fill="#DD2C00"/>
<defs>
<linearGradient id="paint0_linear_201_55" x1="150" y1="0" x2="150" y2="300" gradientUnits="userSpaceOnUse">
<stop stop-color="white"/>
<stop offset="1" stop-color="#FAFAFA"/>
</linearGradient>
</defs>
</svg>
