<svg width="300" height="300" viewBox="0 0 300 300" fill="none" xmlns="http://www.w3.org/2000/svg">
<rect width="300" height="300" rx="65" fill="url(#paint0_linear_201_56)"/>
<g clip-path="url(#clip0_201_56)">
<path d="M169.346 63.3216C159.999 52.2321 151.949 40.9688 150.304 38.6299C150.265 38.5889 150.218 38.5562 150.166 38.5338C150.114 38.5115 150.058 38.5 150.001 38.5C149.945 38.5 149.889 38.5115 149.836 38.5338C149.784 38.5562 149.737 38.5889 149.698 38.6299C148.054 40.9692 140.004 52.2321 130.656 63.3216C50.4184 165.64 143.293 234.69 143.293 234.69L144.072 235.21C144.764 245.866 146.496 261.202 146.496 261.202H153.42C153.42 261.202 155.151 245.953 155.844 235.211L156.623 234.604C156.709 234.691 249.584 165.64 169.346 63.3216ZM149.958 233.131C149.958 233.131 145.803 229.579 144.678 227.76V227.586L149.698 116.171C149.698 115.824 150.218 115.824 150.218 116.171L155.238 227.586V227.76C154.113 229.579 149.958 233.131 149.958 233.131V233.131Z" fill="#01EC64"/>
</g>
<defs>
<linearGradient id="paint0_linear_201_56" x1="150" y1="0" x2="150" y2="300" gradientUnits="userSpaceOnUse">
<stop stop-color="white"/>
<stop offset="1" stop-color="#FAFAFA"/>
</linearGradient>
<clipPath id="clip0_201_56">
<rect width="104" height="223" fill="white" transform="translate(98 38.5)"/>
</clipPath>
</defs>
</svg>
