<svg width="300" height="300" viewBox="0 0 300 300" fill="none" xmlns="http://www.w3.org/2000/svg">
<rect width="300" height="300" rx="65" fill="url(#paint0_linear_201_62)"/>
<g clip-path="url(#clip0_201_62)">
<path d="M226.36 198.032C216.461 198.032 208.684 198.738 202.32 201.563C200.199 202.27 197.371 202.27 197.371 204.389L199.492 208.627C200.906 210.746 203.027 214.278 205.856 216.397L213.633 222.048L228.481 229.111L236.258 235.468L240.5 238.294L238.379 234.056L234.844 230.524C231.309 225.579 227.067 221.341 222.117 217.81C217.875 215.69 209.391 211.452 207.977 207.214H207.27L215.754 205.095L228.481 202.976L234.137 201.563V200.151L227.774 193.087C222.117 187.437 215.047 182.492 207.977 177.548L195.25 171.897C193.836 171.19 191.008 170.484 190.301 169.071L185.352 159.889L174.746 138.698L169.09 124.571C156.363 103.381 142.223 90.6667 121.012 78.6587C116.77 75.8333 111.113 75.127 105.457 73.7143L96.2658 73.0079L90.6095 68.7698C83.5392 64.5317 65.1564 54.6428 60.2072 67.3571C56.672 75.127 65.1564 82.8968 67.9845 87.1349L74.3478 96.3174L76.4689 102.675C78.59 108.325 80.0041 114.683 82.8322 119.627L87.0744 126.69C88.4884 128.103 89.9025 128.81 90.6095 130.929C88.4884 133.754 88.4884 137.286 87.7814 140.111C82.8322 154.238 84.9533 171.19 91.3166 181.786C92.7306 184.611 97.6798 191.675 104.043 188.849C109.699 186.73 108.285 179.667 109.699 173.31L110.406 170.484L116.063 180.373C119.598 186.73 125.961 193.087 131.617 197.325C134.445 199.444 137.274 202.976 140.809 204.389L137.981 201.563L131.617 194.5C125.961 187.437 121.719 179.667 117.477 171.897L112.528 159.889L110.406 155.651C108.285 158.476 105.457 160.595 104.043 164.127C101.922 169.071 101.922 176.135 101.215 182.492H100.508C96.2658 181.786 94.8517 177.548 93.4377 174.016C89.9025 165.54 89.1955 151.413 92.7306 141.524C93.4377 138.698 96.9728 130.929 95.5588 128.103C94.8517 125.984 92.7306 124.571 91.3166 123.159L86.3673 114.683L79.297 93.4921L72.9338 84.3095C70.8127 80.7778 67.9845 78.6587 65.8634 74.4206C65.1564 73.0079 64.4494 70.8889 65.8634 69.4762L67.2775 68.0635C68.6916 66.6508 73.6408 68.0635 75.0548 68.7698C79.297 70.8889 83.5392 72.3016 87.0744 75.127L92.7306 79.3651H95.5588C99.8009 80.0714 104.043 79.3651 107.578 80.7778C113.942 82.8968 120.305 85.7222 125.254 89.254C141.516 99.1428 154.949 113.976 163.434 130.929C165.555 133.754 165.555 136.579 166.969 139.405L175.453 157.77C178.281 163.421 180.402 169.071 183.938 174.016C186.059 176.841 193.836 178.254 196.664 179.667L205.149 182.492L217.875 190.968C219.289 192.381 225.652 195.913 226.36 198.032Z" fill="#00546B"/>
<path d="M100.508 91.373L95.5586 92.0794L99.8008 97.0238L102.629 103.381V102.675C104.75 101.968 105.457 99.8492 105.457 97.0238L104.043 94.1984L100.508 91.373Z" fill="#00546B"/>
</g>
<defs>
<linearGradient id="paint0_linear_201_62" x1="150" y1="0" x2="150" y2="300" gradientUnits="userSpaceOnUse">
<stop stop-color="white"/>
<stop offset="1" stop-color="#FAFAFA"/>
</linearGradient>
<clipPath id="clip0_201_62">
<rect width="181" height="178" fill="white" transform="translate(59.5 61)"/>
</clipPath>
</defs>
</svg>
