<svg width="300" height="300" viewBox="0 0 300 300" fill="none" xmlns="http://www.w3.org/2000/svg">
<rect width="300" height="300" rx="65" fill="url(#paint0_linear_201_48)"/>
<g clip-path="url(#clip0_201_48)">
<path d="M241.777 168.811C240.332 165.193 237.441 163.023 233.828 162.299L228.047 163.023L217.929 164.47C226.601 150 233.828 133.36 237.441 117.443C243.945 92.8448 241.054 81.269 236.719 76.2046C231.446 69.353 224.652 63.8246 216.875 60.0573C209.099 56.2901 200.552 54.3874 191.914 54.5001C181.797 54.5001 172.402 56.6705 168.066 58.1175L154.336 56.6705C145.664 56.6705 136.992 58.841 130.488 62.4584L113.867 58.1175C97.2459 55.9471 83.5154 58.1175 74.1209 64.6289C62.5584 73.3107 56.7771 87.7804 57.4998 108.038C60.7396 132.304 67.5587 155.954 77.7342 178.216C82.7928 188.345 87.8514 194.133 94.3553 195.58C97.9685 197.027 103.75 197.75 110.254 192.686L113.867 195.58L120.371 197.75C128.32 199.921 136.269 199.197 142.773 197.027C142.792 199.438 142.792 201.85 142.773 204.261C142.746 212.358 143.965 220.411 146.387 228.136C147.109 231.03 149.277 236.095 152.89 239.712C157.226 244.053 162.285 245.5 167.344 245.5L173.847 244.777C181.074 243.33 189.023 240.436 194.804 232.477C200.586 224.519 202.754 212.943 203.476 194.133V192.686L204.199 191.239L204.922 191.962H205.644C212.871 191.962 221.543 190.515 227.324 187.621C230.937 186.174 244.668 178.939 241.777 168.811Z" fill="black"/>
<path d="M229.492 170.981C207.812 175.322 206.367 168.087 206.367 168.087C229.492 134.083 238.887 91.3978 230.215 81.269C207.812 52.3296 169.512 66.0758 168.789 66.0758L154.336 64.6288C144.219 64.6288 136.992 67.5228 131.211 71.8637C131.211 71.8637 62.5585 42.9243 65.4491 107.314C66.1718 121.061 85.6835 210.773 108.086 184.004L123.984 165.193C128.32 168.087 132.656 169.534 137.715 168.811H138.437V172.428C132.656 178.939 134.101 179.663 122.539 182.557C110.976 184.727 117.48 189.068 122.539 190.515C127.598 191.962 140.605 193.409 148.555 181.833V183.28C150.723 184.727 152.168 194.856 152.168 204.261C151.445 212.943 151.445 219.455 153.613 223.796C155.059 228.86 157.226 239.712 172.402 236.818C184.687 233.924 191.914 226.689 192.637 215.114C193.359 206.432 194.805 207.879 194.805 200.644L195.527 197.027C196.973 185.451 196.25 181.833 204.199 183.28L205.644 184.004C211.426 184.004 219.375 182.557 223.711 180.386C233.105 176.046 238.887 168.811 229.492 170.981Z" fill="#336791"/>
<path d="M135.547 113.826H131.211L130.488 115.273L131.211 117.443C131.934 118.89 133.379 119.614 134.824 119.614H135.547C137.715 119.614 139.883 118.167 139.883 116.72C140.605 115.273 137.715 113.826 135.547 113.826ZM199.863 113.826C199.863 112.379 196.973 111.655 194.805 112.379C192.637 112.379 190.469 113.102 190.469 114.549C191.191 115.996 192.637 117.443 194.805 117.443H195.527L198.418 115.996L199.863 113.826Z" fill="white"/>
<path d="M236.718 170.258C235.996 168.087 233.105 166.64 228.769 168.087C215.761 170.258 211.426 168.811 209.258 167.364C219.375 152.17 228.047 133.36 232.383 115.996C234.551 108.038 235.996 100.08 235.996 94.2916C235.996 87.0568 234.551 81.9924 232.383 79.0985C227.522 72.8428 221.263 67.8164 214.109 64.4237C206.955 61.0309 199.105 59.3666 191.191 59.5644C179.629 59.5644 169.511 62.4583 167.343 63.9053C163.73 62.4583 158.672 61.7348 154.336 61.7348C144.941 61.7348 137.715 63.9053 131.211 68.2462C128.32 66.7992 121.093 64.6288 112.422 63.1818C97.2458 61.0113 85.6833 62.4583 77.0115 68.9697C66.8943 76.2045 61.8357 89.2272 63.281 107.314C63.281 113.102 66.8943 132.636 72.6755 150.723C79.9021 174.598 87.8513 187.621 95.8005 190.515L99.4138 191.239C102.304 191.239 105.918 189.792 109.531 184.727L124.707 168.811C127.597 170.258 131.211 170.981 134.824 170.981V171.705L133.379 173.875C130.488 177.492 129.765 177.492 121.816 179.663C119.648 179.663 113.144 181.11 113.144 185.451C113.144 190.515 120.371 192.686 121.093 192.686L129.765 193.409C136.269 193.409 142.051 191.239 147.109 187.621C146.386 204.261 147.109 220.901 149.277 225.966C151.445 230.307 155.058 240.436 168.066 240.436L174.57 239.712C187.578 236.818 193.359 231.03 195.527 218.008L199.863 185.451L207.812 186.174C213.593 186.174 220.097 184.727 224.433 182.557C229.492 180.386 238.164 175.322 236.718 170.258ZM204.922 110.208L204.199 117.443L202.754 126.125L203.476 136.254C204.199 142.765 205.644 150 202.031 156.511L200.586 153.617L198.418 149.276C193.359 140.595 182.519 121.061 188.301 113.102C189.746 110.932 194.082 108.761 204.922 110.208ZM191.914 65.3522C207.09 65.3522 219.375 71.1401 228.047 81.9924C234.551 90.6742 227.324 129.019 206.367 162.299L205.644 161.576C210.703 152.17 209.98 143.489 209.258 135.53L208.535 126.125L209.258 118.167C209.928 114.347 210.171 110.464 209.98 106.591C209.98 102.973 205.644 92.1212 196.972 81.9924C192.636 76.928 185.41 70.4166 176.738 66.7992L191.914 65.3522ZM105.918 181.833C101.582 186.898 98.6911 186.174 97.2458 185.451C91.4646 183.28 83.5154 170.258 77.7341 148.553C71.9529 130.466 68.3396 112.379 68.3396 107.314C67.6169 90.6742 71.2302 79.0985 79.9021 73.3106C94.3552 63.1818 117.48 68.9697 126.152 71.8636V72.5871C110.976 87.7803 110.976 113.826 110.976 115.996V118.167C111.699 123.231 112.422 131.189 110.976 140.595C110.274 145.093 110.699 149.696 112.213 153.989C113.726 158.283 116.281 162.133 119.648 165.193L105.918 181.833ZM121.816 160.129C117.48 155.064 115.312 148.553 116.035 141.318C117.48 131.189 116.758 122.508 116.758 118.167V116.72C118.926 114.549 129.043 108.761 136.269 110.932C139.883 111.655 142.051 113.826 142.773 117.443C147.109 137.701 143.496 146.383 139.883 153.617L138.437 157.235L137.715 158.682L135.547 165.917C130.488 165.917 125.429 163.746 121.816 160.129ZM122.539 187.621L118.926 186.174L123.261 184.727C132.656 182.557 134.101 181.11 136.992 177.492L139.883 173.875C142.051 171.705 142.773 172.428 144.218 173.151C144.941 173.151 146.386 174.598 147.109 176.769L146.386 179.663C139.883 189.068 129.765 189.068 122.539 187.621ZM173.125 234.648C161.562 236.818 157.226 231.03 154.336 223.795C151.762 207.774 151.035 191.51 152.168 175.322C150.722 171.705 148.554 168.811 146.386 168.087C144.941 167.364 142.773 166.64 140.605 167.364L142.773 160.129L143.496 159.405L144.941 155.788C148.554 148.553 152.89 138.424 147.832 116.72C146.386 108.038 139.883 104.42 131.211 105.144C126.106 105.86 121.194 107.581 116.758 110.208C117.48 101.526 120.371 86.3333 129.765 76.2045C136.269 70.4166 144.218 66.7992 154.336 67.5227C173.847 67.5227 186.133 77.6515 193.359 86.3333C199.14 93.5682 202.754 100.803 204.199 104.42C194.082 103.697 187.578 105.144 183.965 110.208C176.738 121.061 188.301 142.042 193.359 151.447L195.527 155.788L201.308 165.193L202.754 166.64C199.863 168.087 194.804 169.534 194.804 179.663L190.468 216.561C188.301 228.136 184.687 231.754 173.125 234.648ZM222.265 178.216C219.375 179.663 214.316 180.386 209.258 180.386C203.476 181.11 201.308 180.386 200.586 179.663C199.863 173.151 202.754 172.428 204.922 171.705H206.367L207.09 172.428C211.426 175.322 218.652 175.322 229.492 173.151H230.215L222.265 178.216Z" fill="white"/>
</g>
<defs>
<linearGradient id="paint0_linear_201_48" x1="150" y1="0" x2="150" y2="300" gradientUnits="userSpaceOnUse">
<stop stop-color="white"/>
<stop offset="1" stop-color="#FAFAFA"/>
</linearGradient>
<clipPath id="clip0_201_48">
<rect width="185" height="191" fill="white" transform="translate(57.5 54.5)"/>
</clipPath>
</defs>
</svg>
