<svg width="300" height="300" viewBox="0 0 300 300" fill="none" xmlns="http://www.w3.org/2000/svg">
<rect width="300" height="300" rx="65" fill="url(#paint0_linear_206_7)"/>
<g clip-path="url(#clip0_206_7)">
<path d="M234.812 192.373C224.966 197.4 174.078 218.371 163.297 223.973C152.444 229.646 146.406 229.574 137.853 225.481C129.3 221.387 75.25 199.554 65.4031 194.886C60.5875 192.588 58 190.577 58 188.782V170.109C58 170.109 128.438 154.812 139.866 150.718C151.222 146.696 155.175 146.553 164.878 150.072C174.509 153.663 232.441 164.076 242 167.524V185.909C242 187.704 239.844 189.715 234.812 192.373Z" fill="#912626"/>
<path d="M234.812 173.844C224.965 178.943 174.078 199.842 163.297 205.444C152.443 211.189 146.406 211.117 137.853 207.024C129.3 202.93 75.1778 181.097 65.4028 176.429C55.6997 171.761 55.484 168.529 65.0434 164.795C74.6747 161.06 128.437 139.946 139.793 135.852C151.293 131.83 155.175 131.686 164.878 135.134C174.509 138.725 225.109 158.834 234.668 162.353C244.228 165.872 244.587 168.745 234.812 173.844Z" fill="#C6302B"/>
<path d="M234.812 162.209C224.966 167.38 174.078 188.279 163.297 193.953C152.444 199.554 146.406 199.483 137.853 195.389C129.3 191.367 75.1781 169.534 65.4031 164.794C60.5875 162.496 58 160.485 58 158.69V140.089C58 140.089 128.438 124.792 139.866 120.698C151.222 116.604 155.175 116.461 164.878 119.98C174.509 123.571 232.441 133.984 242 137.504V155.745C242 157.541 239.844 159.624 234.812 162.209Z" fill="#912626"/>
<path d="M234.812 143.824C224.965 148.851 174.078 169.822 163.297 175.424C152.443 181.097 146.406 181.025 137.853 176.932C129.3 172.838 75.2497 151.005 65.4028 146.409C55.6997 141.741 55.484 138.509 65.0434 134.846C74.6747 130.968 128.437 109.782 139.793 105.832C151.293 101.738 155.175 101.523 164.878 105.114C174.509 108.704 225.109 128.814 234.668 132.261C244.228 135.852 244.587 138.724 234.812 143.752" fill="#C6302B"/>
<path d="M234.812 131.112C224.966 136.139 174.078 157.11 163.297 162.712C152.444 168.386 146.406 168.314 137.853 164.22C129.3 160.126 75.25 138.294 65.4031 133.626C60.5875 131.327 58 129.316 58 127.521V108.848C58 108.848 128.438 93.551 139.866 89.4574C151.222 85.4356 155.175 85.2919 164.878 88.811C174.509 92.4019 232.441 102.816 242 106.335V124.648C242 126.444 239.844 128.455 234.812 131.112Z" fill="#912626"/>
<path d="M234.812 112.655C224.965 117.682 174.078 138.581 163.297 144.255C152.443 149.928 146.406 149.856 137.853 145.691C129.3 141.741 75.2497 119.836 65.4028 115.24C55.6997 110.572 55.484 107.34 65.0434 103.605C74.6747 99.7991 128.437 78.6846 139.793 74.5909C151.293 70.5691 155.175 70.4255 164.878 73.9446C174.509 77.5355 225.109 97.6446 234.668 101.092C244.228 104.611 244.587 107.555 234.812 112.583" fill="#C6302B"/>
<path d="M172.497 94.5563L156.685 96.1363L153.091 104.683L147.341 95.2026L129.157 93.5508L142.813 88.5954L138.644 81.0544L151.438 86.0817L163.441 82.1317L160.207 89.9599L172.425 94.5563M152.157 135.852L122.688 123.643L164.95 117.107L152.157 135.78M111.188 99.2244C123.766 99.2244 133.829 103.174 133.829 107.986C133.829 112.87 123.766 116.748 111.26 116.748C98.7535 116.748 88.6191 112.87 88.6191 107.986C88.6191 103.174 98.7535 99.2244 111.26 99.2244" fill="white"/>
<path d="M191.185 96.8545L216.126 106.765L191.113 116.604V96.8545" fill="#621B1C"/>
<path d="M163.512 107.771L191.184 96.8545V116.604L188.452 117.682L163.512 107.771Z" fill="#9A2928"/>
</g>
<defs>
<linearGradient id="paint0_linear_206_7" x1="150" y1="0" x2="150" y2="300" gradientUnits="userSpaceOnUse">
<stop stop-color="white"/>
<stop offset="1" stop-color="#FAFAFA"/>
</linearGradient>
<clipPath id="clip0_206_7">
<rect width="184" height="158" fill="white" transform="translate(58 71)"/>
</clipPath>
</defs>
</svg>
